<mxfile host="app.diagrams.net" modified="2024-01-26T09:47:47.203Z" agent="Mozilla/5.0 (Windows NT 10.0; Win64; x64) AppleWebKit/537.36 (KHTML, like Gecko) Chrome/120.0.0.0 Safari/537.36" version="22.1.21" etag="W7STnU3Juq3KCIYwo3uH" type="github">
  <diagram name="Page-1" id="bRyC6HsIlIjv0lHcHv3A">
    <mxGraphModel>
      <root>
        <mxCell id="0" />
        <mxCell id="1" parent="0" />
      </root>
    </mxGraphModel>
  </diagram>
</mxfile>
